<svg id="588ec4c6-2432-4a9f-8f9c-7baa14238159" data-name="Layer 1" xmlns="http://www.w3.org/2000/svg" viewBox="0 0 321.33 95.56"><defs><style>.\35 6af2db4-095f-41bd-b67a-71ea5391515c{fill:#555;}.\30 51e97b5-7a84-4cbf-a51f-4619501f8a95{fill:#131313;}.\35 4ca077e-cff9-4fd2-9fd2-7103dbdc9845{fill:#6e6e6e;}.af3b2338-a02c-487d-ac40-9bfde3958de0{fill:#2e9ddb;}.\37 ee41345-1100-4460-aa58-406b637ebc72{fill:#268dc6;}.\37 5bc2795-932b-4c89-b981-c23b14530c19{fill:#2ea6e8;}.e574876e-c37c-46e7-a3a4-0968b9ff04f1{fill:#3ba7e2;}.db04e9db-5733-4bfc-9def-38bc41b904b8{fill:#3f9dd1;}.ea48369b-e43f-4dea-bfcf-63d050a2694c{fill:#29a9ff;}.\31 8201890-7fa1-4b69-a85e-f35a8aad831f{fill:#36aff2;}.f4bb598e-4df2-455d-9eb5-ee70247bb638{fill:#389ed6;}.\38 030085f-447b-4605-ada0-c02e57d84d0e{fill:#fdfdfd;}.d7de2f0c-6de1-4f9d-b01b-f841e3d47357{fill:#666;}.bac16a71-8b56-42dd-82f9-1c41f441d9cf{fill:#f6f6f6;}.c1e4485f-37b3-4f45-9468-1922f16707cc{fill:#545454;}.af7c0792-d2f2-423a-ab61-625ad50388fe{fill:#515151;}.a2e5a238-ae2d-48b4-ada8-f1593e14838e{fill:#6c6c6c;}.d3f02f9a-63e4-4761-9610-f863ca4ee95f{fill:#fefefe;}.f5d53cf9-8060-4d14-aae2-9069bbff3228{fill:#fcfcfc;}.aac83747-3e91-4aac-8219-7dc120f4cb68{fill:#f9f9f9;}</style></defs><title>gem-logo1</title><path class="56af2db4-095f-41bd-b67a-71ea5391515c" d="M800.88,535.84c-2.28,0-4.56,0-6.84,0-.9,0-1.11-.21-1.1-1.11,0-11.24,0-22.48,0-33.72a19.15,19.15,0,0,0-1.27-7.15c-3-7.67-10.4-10.93-18.22-8.08-6.32,2.3-9.79,7.25-9.79,14q0,17.46,0,34.92c0,1-.25,1.19-1.17,1.16-1.8-.08-3.6-.1-5.4,0-1.11.06-1.45-.18-1.45-1.38.06-11.64-.1-23.28.07-34.92.15-10.32-10.52-16.76-19.27-14.15-5.28,1.58-7.92,5.64-9.26,10.7a20.14,20.14,0,0,0-.52,5.24c0,11.08,0,22.16,0,33.24,0,1.1-.3,1.32-1.31,1.27-1.92-.08-3.84,0-5.76,0-.63,0-.9-.09-.9-.82,0-11.64-.13-23.28.1-34.92.17-8.55,3.61-15.67,11.45-19.7s16-4.37,23.6,1.25a24.6,24.6,0,0,1,5.74,6.49c.7-.95,1.33-1.85,2-2.71,6.16-7.7,14.6-9.65,23.94-6.57,8.87,2.92,13.61,9.47,15,18.58,0,.24-.13.59.26.71v.72a.31.31,0,0,0,0,.48v.72a1.84,1.84,0,0,0,0,1.44Z" transform="translate(-479.55 -464.52)"/><path class="051e97b5-7a84-4cbf-a51f-4619501f8a95" d="M800.88,501.52a1.08,1.08,0,0,1,0-1.44Z" transform="translate(-479.55 -464.52)"/><path class="54ca077e-cff9-4fd2-9fd2-7103dbdc9845" d="M800.88,499.36c-.27-.16-.34-.32,0-.48Z" transform="translate(-479.55 -464.52)"/><path class="56af2db4-095f-41bd-b67a-71ea5391515c" d="M588.9,537.28c2.3,0,4.54,0,6.77,0,.44,0,.59.18.75.58,3.22,8,9.35,12.38,17.63,13.49,8.45,1.13,15.21-2.29,20.23-9.11a16.56,16.56,0,0,0,3.15-9.76c0-1.82,0-3.64,0-5.71a36.32,36.32,0,0,1-4.42,4.17,28.61,28.61,0,0,1-40.69-6c-12.12-16.17-5.21-39.9,13.71-46.28,11.66-3.93,22-1.15,30.59,7.61a27.7,27.7,0,0,1,8.3,20.27c0,8.32-.2,16.64,0,25,.28,9.71-4,16.64-12,21.66-12.81,8-30.44,5.17-39.47-6.46a26.93,26.93,0,0,1-4.4-8.57A7.94,7.94,0,0,1,588.9,537.28Z" transform="translate(-479.55 -464.52)"/><path class="56af2db4-095f-41bd-b67a-71ea5391515c" d="M710.41,517.15a29,29,0,0,1-13.93,16.57c-13.49,7.33-29.72,3.19-38.65-9.85-8.67-12.66-6-29.65,5.91-39.83,12.23-10.42,30.89-8.78,41.76,4.64,4.92,6.07,6.76,13,6.33,20.66,0,.45-.12.67-.61.63-.28,0-.56,0-.84,0q-24.23,0-48.46,0c-1.25,0-1.34.41-1.16,1.43a21.94,21.94,0,0,0,21.6,18.29c8.94.09,15.48-3.76,19.54-11.74a1.19,1.19,0,0,1,1.26-.78C705.53,517.18,707.89,517.15,710.41,517.15Z" transform="translate(-479.55 -464.52)"/><path class="af3b2338-a02c-487d-ac40-9bfde3958de0" d="M572.44,557.72,510,525.07l30.18-29.94,32.54,62.31Z" transform="translate(-479.55 -464.52)"/><path class="7ee41345-1100-4460-aa58-406b637ebc72" d="M564.68,559.88l-25-2.22-57-5.11a1,1,0,0,1-.23-.09c0-.41.39-.57.62-.8q11.19-11.21,22.38-22.41c.55-.55.92-.75,1.69-.34q29.17,15.32,58.38,30.58a.46.46,0,0,1,.09.08C565.53,560.26,565.05,559.89,564.68,559.88Z" transform="translate(-479.55 -464.52)"/><path class="75bc2795-932b-4c89-b981-c23b14530c19" d="M574.55,550.73l-18.44-35.25q-6.09-11.65-12.19-23.29c-.29-.56-.47-.93.12-1.52q11.51-11.39,23-22.84c.11-.11.23-.2.48-.41.3,3.28.59,6.44.87,9.6q2.2,24.47,4.4,48.94,1.05,11.76,2.09,23.52C574.85,549.93,575.22,550.45,574.55,550.73Z" transform="translate(-479.55 -464.52)"/><path class="e574876e-c37c-46e7-a3a4-0968b9ff04f1" d="M507.61,519.75c-1.16-9.92-2.32-19.85-3.52-29.77-.12-1,.27-.92,1-.84q14.94,1.77,29.89,3.51c.1.51-.35.68-.6.94q-12.79,12.81-25.6,25.59C508.46,519.48,508.25,520.11,507.61,519.75Z" transform="translate(-479.55 -464.52)"/><path class="db04e9db-5733-4bfc-9def-38bc41b904b8" d="M501.78,526.06l-22.23,22.23V514.52Z" transform="translate(-479.55 -464.52)"/><path class="ea48369b-e43f-4dea-bfcf-63d050a2694c" d="M540.94,486.62l-11.47-22.1h33.6Z" transform="translate(-479.55 -464.52)"/><path class="18201890-7fa1-4b69-a85e-f35a8aad831f" d="M535.17,487.87l-28.4-3.31c-.07-.48.29-.6.49-.8q8.42-8.44,16.84-16.88c.65-.66.87-.71,1.33.19,3.54,6.86,7.15,13.69,10.73,20.52C536,488.25,535.54,487.9,535.17,487.87Z" transform="translate(-479.55 -464.52)"/><path class="f4bb598e-4df2-455d-9eb5-ee70247bb638" d="M503,521.36l-6.35-3.31-14.75-7.68c-.49-.26-.93-.38-.27-1Q490.36,500.68,499,492a4.71,4.71,0,0,1,.48-.35Z" transform="translate(-479.55 -464.52)"/><path class="56af2db4-095f-41bd-b67a-71ea5391515c" d="M781.91,548.36a3.74,3.74,0,0,1-1.44-3,3.39,3.39,0,0,1,6.76-.08c0,.88,0,1.76,0,2.63,0,1.8-.72,2.77-2.3,3.14a3.35,3.35,0,0,1-4-1.73c-.07-.14-.12-.3-.18-.44.75-.42,1.3-.1,1.88.42,1.13,1,2.09.84,2.92-.41C784.29,549,783,549.61,781.91,548.36Z" transform="translate(-479.55 -464.52)"/><path class="56af2db4-095f-41bd-b67a-71ea5391515c" d="M655,548.36a3.74,3.74,0,0,1-1.44-3,3.39,3.39,0,0,1,6.76-.08c0,.88,0,1.76,0,2.63,0,1.8-.72,2.77-2.3,3.14a3.35,3.35,0,0,1-4-1.73c-.07-.14-.12-.3-.18-.45.75-.42,1.3-.1,1.88.42,1.13,1,2.09.84,2.92-.41C657.33,549,656,549.61,655,548.36Z" transform="translate(-479.55 -464.52)"/><path class="56af2db4-095f-41bd-b67a-71ea5391515c" d="M738.24,546.36c0-.56,0-1.12,0-1.68a2.58,2.58,0,0,1,4.15-2.07.72.72,0,0,0,1,0,2.52,2.52,0,0,1,4.05,1.78c.15,1.26,0,2.55.06,3.83,0,.53-.3.54-.7.55s-.46-.32-.46-.63c0-1,0-2.08,0-3.11s-.61-1.89-1.43-1.86-1.43.79-1.45,1.86,0,2,0,3c0,.41.05.77-.58.77s-.63-.28-.63-.73q0-1.56,0-3.11c0-1-.69-1.84-1.53-1.76a1.49,1.49,0,0,0-1.37,1.66q0,1.62,0,3.23c0,.51-.15.71-.68.7s-.47-.4-.48-.74C738.23,547.48,738.24,546.92,738.24,546.36Z" transform="translate(-479.55 -464.52)"/><path class="56af2db4-095f-41bd-b67a-71ea5391515c" d="M707.48,548.29c0,.79,0,1.39,0,2,0,.44-.12.64-.61.65s-.56-.28-.56-.67c0-1.6,0-3.2,0-4.8a3.39,3.39,0,0,1,2.47-3.3,3.45,3.45,0,0,1,3.71,1.33,3.77,3.77,0,0,1-.17,4.27,3.4,3.4,0,0,1-3.9,1A10.67,10.67,0,0,1,707.48,548.29Z" transform="translate(-479.55 -464.52)"/><path class="56af2db4-095f-41bd-b67a-71ea5391515c" d="M730.56,542.77c0-.77,0-1.41,0-2,0-.38.06-.59.52-.57s.66.07.66.59c0,1.72.07,3.44,0,5.15a3.33,3.33,0,0,1-4,3.05,3.44,3.44,0,0,1-2.58-4.49,3.38,3.38,0,0,1,4.51-2.15C729.87,542.41,730.14,542.57,730.56,542.77Z" transform="translate(-479.55 -464.52)"/><path class="56af2db4-095f-41bd-b67a-71ea5391515c" d="M718.32,545.92c.8,2.27,2.53,2.67,4,1a1.15,1.15,0,0,1,1.37-.3c-.27,1.8-2.51,2.67-4,2.26a3.47,3.47,0,0,1-2.54-3.82,3.35,3.35,0,0,1,3.56-3,3.3,3.3,0,0,1,3.2,3c.05.65-.09.91-.81.89C721.53,545.88,720,545.92,718.32,545.92Z" transform="translate(-479.55 -464.52)"/><path class="56af2db4-095f-41bd-b67a-71ea5391515c" d="M675.86,545.92c.73,2.25,2.5,2.66,4,1,.4-.44.4-.44,1.35-.31a3.13,3.13,0,0,1-3.74,2.29,3.4,3.4,0,0,1-2.8-3.84,3.41,3.41,0,0,1,6.75-.19c.08.71,0,1.08-.89,1C679,545.86,677.47,545.92,675.86,545.92Z" transform="translate(-479.55 -464.52)"/><path class="56af2db4-095f-41bd-b67a-71ea5391515c" d="M755.15,546.61a3.23,3.23,0,0,1-4.06,2.27,3.43,3.43,0,0,1-2.51-3.94,3.35,3.35,0,0,1,3.56-2.86,3.31,3.31,0,0,1,3.19,3c.05.68-.13.92-.83.87s-1.6,0-2.39,0h-2.33a2.23,2.23,0,0,0,1.74,1.95,1.85,1.85,0,0,0,2.17-.85C754.1,546.4,754.59,546.51,755.15,546.61Z" transform="translate(-479.55 -464.52)"/><path class="56af2db4-095f-41bd-b67a-71ea5391515c" d="M772.9,546.65a3.22,3.22,0,0,1-4,2.23,3.43,3.43,0,0,1-2.52-3.94,3.35,3.35,0,0,1,3.55-2.86,3.31,3.31,0,0,1,3.19,3c.05.67-.11.9-.82.88-1.55-.05-3.11,0-4.72,0a2.21,2.21,0,0,0,1.73,1.94,1.85,1.85,0,0,0,2.18-.84C771.85,546.42,772.33,546.46,772.9,546.65Z" transform="translate(-479.55 -464.52)"/><path class="56af2db4-095f-41bd-b67a-71ea5391515c" d="M789.37,545.92c.79,2.27,2.53,2.67,4,1a1.16,1.16,0,0,1,1.38-.3,3.15,3.15,0,0,1-3.9,2.26,3.38,3.38,0,0,1-2.66-3.82,3.35,3.35,0,0,1,3.55-3,3.3,3.3,0,0,1,3.2,3c.05.65-.08.95-.81.89s-1.6,0-2.39,0Z" transform="translate(-479.55 -464.52)"/><path class="8030085f-447b-4605-ada0-c02e57d84d0e" d="M695.56,544c.46-.48-.08-1.21.42-1.69a1.45,1.45,0,0,1,.38,1c0,1.54.05,3.09,0,4.63a1.33,1.33,0,0,1-.33.87c-.58-.44,0-1.2-.46-1.67a4.09,4.09,0,0,0-1.78.61,2.62,2.62,0,0,1-3.38-3.95,2.39,2.39,0,0,1,3.4-.44A3.69,3.69,0,0,0,695.56,544Z" transform="translate(-479.55 -464.52)"/><path class="56af2db4-095f-41bd-b67a-71ea5391515c" d="M664.54,542.08a3.46,3.46,0,1,1-3.34,3.44A3.29,3.29,0,0,1,664.54,542.08Z" transform="translate(-479.55 -464.52)"/><path class="56af2db4-095f-41bd-b67a-71ea5391515c" d="M699.35,542.43c.91-.35,1.35,0,1.63.82.4,1.15.9,2.27,1.44,3.61.58-1.34,1.11-2.49,1.56-3.66.29-.76.69-1.13,1.6-.76-1.12,2.66-2.25,5.32-3.36,8a.82.82,0,0,1-1.19.43c-.5-.21,0-.66.09-.88a3.11,3.11,0,0,0,0-3.13C700.43,545.42,699.93,543.91,699.35,542.43Z" transform="translate(-479.55 -464.52)"/><path class="56af2db4-095f-41bd-b67a-71ea5391515c" d="M695.56,544c-.64.74-1.12.32-1.65-.18a2.12,2.12,0,0,0-3.34.18,2.31,2.31,0,0,0,.21,3.32,2.23,2.23,0,0,0,3.22-.11c.53-.48,1-.76,1.57-.09a3.71,3.71,0,0,1-6.13.47,3.54,3.54,0,0,1,.61-4.74,3.66,3.66,0,0,1,4.88.29A9.81,9.81,0,0,1,695.56,544Z" transform="translate(-479.55 -464.52)"/><path class="56af2db4-095f-41bd-b67a-71ea5391515c" d="M779.56,546.4c0,.6,0,1.2,0,1.79,0,.39-.12.57-.55.57s-.56-.17-.56-.57c0-1,0-1.91,0-2.87a2,2,0,0,0-1.84-2.24c-1,0-1.68.94-1.69,2.22,0,.92,0,1.83,0,2.75,0,.5-.13.71-.67.71s-.49-.39-.49-.73c0-1.08,0-2.15,0-3.23a2.9,2.9,0,0,1,5.79,0C779.58,545.37,779.56,545.88,779.56,546.4Z" transform="translate(-479.55 -464.52)"/><path class="56af2db4-095f-41bd-b67a-71ea5391515c" d="M687.88,546.43c0,.48,0,1,0,1.44s.18.93-.58.9-.51-.58-.52-1c0-.84,0-1.67,0-2.51a2.06,2.06,0,0,0-1.75-2.21c-1,0-1.77.91-1.79,2.25,0,.92,0,1.83,0,2.75,0,.41-.07.67-.58.68s-.6-.21-.59-.64c0-1.16,0-2.32,0-3.47a2.9,2.9,0,0,1,5.77.09c0,.56,0,1.12,0,1.67Z" transform="translate(-479.55 -464.52)"/><path class="56af2db4-095f-41bd-b67a-71ea5391515c" d="M763.39,549a2.1,2.1,0,0,1-2.14-1.21c-.13-.31-.41-.76,0-1s.88-.27,1.05.37a1,1,0,0,0,.55.6.85.85,0,0,0,1.15-.33.79.79,0,0,0-.21-1.24c-.46-.29-1-.4-1.52-.64a1.74,1.74,0,0,1-.92-2,1.68,1.68,0,0,1,1.62-1.49,1.73,1.73,0,0,1,2,1c.11.25.41.65,0,.83s-.78.34-1-.19-.43-.68-.9-.55a.7.7,0,0,0-.55.7c0,.54.39.74.82.88.26.09.53.18.79.28a1.92,1.92,0,0,1,1.26,2.3A2,2,0,0,1,763.39,549Z" transform="translate(-479.55 -464.52)"/><path class="56af2db4-095f-41bd-b67a-71ea5391515c" d="M758.25,549a2,2,0,0,1-2.06-1.27c-.11-.29-.42-.73.05-.92.3-.12.82-.23,1,.35a.89.89,0,0,0,.17.31.87.87,0,0,0,1,.39,1,1,0,0,0,.68-.76.87.87,0,0,0-.53-1c-.42-.21-.9-.31-1.33-.51a1.74,1.74,0,0,1-1-2.1,1.69,1.69,0,0,1,1.68-1.43,1.7,1.7,0,0,1,1.93,1.07c.1.24.41.64-.06.8-.28.09-.73.27-.94-.17s-.45-.76-1-.57a.69.69,0,0,0-.49.74c0,.53.46.7.88.84.23.08.46.14.68.23a2,2,0,0,1,1.31,2.39A2.07,2.07,0,0,1,758.25,549Z" transform="translate(-479.55 -464.52)"/><path class="d7de2f0c-6de1-4f9d-b01b-f841e3d47357" d="M507.61,519.75c.45.13.64-.24.88-.48l26-26a4.29,4.29,0,0,0,.41-.57c.15,0,.37,0,.22.24a4.14,4.14,0,0,1-.56.62l-26.13,26.13c-.2.2-.38.48-.62.55C507.44,520.31,507.62,519.95,507.61,519.75Z" transform="translate(-479.55 -464.52)"/><path class="56af2db4-095f-41bd-b67a-71ea5391515c" d="M714,543.92c0-1,0-2,0-3,0-.37-.13-.79.54-.78s.63.29.62.74c0,.74-.28,1.69,1.07,1.45.32-.06.35.22.36.48s-.19.52-.51.46c-1-.18-1,.41-.95,1.11s0,1.36,0,2,.13,1.45,1,1.63a.44.44,0,0,1,.42.57c0,.4-.32.37-.62.36a1.87,1.87,0,0,1-2-2c0-.08,0-.16,0-.24Q714,545.35,714,543.92Z" transform="translate(-479.55 -464.52)"/><path class="56af2db4-095f-41bd-b67a-71ea5391515c" d="M795.49,545.48q0-1.07,0-2.15c0-.16,0-.32,0-.48,0-.31.14-.7.42-.51.79.51,1.65-.56,2.33.18a.51.51,0,0,1-.31.76,1.88,1.88,0,0,0-1.15,2.12c0,.87,0,1.75,0,2.62,0,.43,0,.74-.61.75s-.72-.27-.71-.79C795.51,547.15,795.5,546.32,795.49,545.48Z" transform="translate(-479.55 -464.52)"/><path class="56af2db4-095f-41bd-b67a-71ea5391515c" d="M696,548.79a37.67,37.67,0,0,1,0-6.48c.72,0,1.45.32,2.16-.07a.35.35,0,0,1,.5.16c.09.26.14.7-.09.78-1.8.63-1.27,2.14-1.35,3.43a4,4,0,0,0,0,1C697.4,548.55,697,548.93,696,548.79Z" transform="translate(-479.55 -464.52)"/><path class="bac16a71-8b56-42dd-82f9-1c41f441d9cf" d="M655,548.36a4,4,0,0,0,4.23-.24,2.24,2.24,0,0,1-1.59,2.05,1.93,1.93,0,0,1-2.3-.82,1.16,1.16,0,0,0-1.51-.5C654,548.3,654.66,548.76,655,548.36Z" transform="translate(-479.55 -464.52)"/><path class="bac16a71-8b56-42dd-82f9-1c41f441d9cf" d="M781.91,548.36a4.12,4.12,0,0,0,4.22-.2,2.22,2.22,0,0,1-1.58,2,1.93,1.93,0,0,1-2.3-.82,1.16,1.16,0,0,0-1.51-.5C781,548.3,781.62,548.76,781.91,548.36Z" transform="translate(-479.55 -464.52)"/><path class="c1e4485f-37b3-4f45-9468-1922f16707cc" d="M574.55,550.73c.47-.33.06-.86.29-1.25a7.73,7.73,0,0,1,.28,2.11A1,1,0,0,1,574.55,550.73Z" transform="translate(-479.55 -464.52)"/><path class="af7c0792-d2f2-423a-ab61-625ad50388fe" d="M564.68,559.88c.31-.2.78.13,1-.3.33,0,.57.15.91.5A4.4,4.4,0,0,1,564.68,559.88Z" transform="translate(-479.55 -464.52)"/><path class="a2e5a238-ae2d-48b4-ada8-f1593e14838e" d="M535.17,487.87c.3-.19.76.16,1-.28.3.24.36.44-.11.48A1.23,1.23,0,0,1,535.17,487.87Z" transform="translate(-479.55 -464.52)"/><path class="d3f02f9a-63e4-4761-9610-f863ca4ee95f" d="M637.23,506.93c.21,10.93-7.51,19-14.25,21.19-15.14,5-27.3-6.34-28.79-17.53-1.42-10.64,4.26-20.8,13.84-24.6,10.59-4.2,22.18.71,27.24,11.53A21.2,21.2,0,0,1,637.23,506.93Z" transform="translate(-479.55 -464.52)"/><path class="d3f02f9a-63e4-4761-9610-f863ca4ee95f" d="M660.66,502.88a21,21,0,0,1,5-10.44c6.19-6.75,13.91-8.91,22.65-6.69,8.43,2.15,13.52,7.9,15.77,16.23.16.6.27,1-.66,1q-21.16,0-42.33,0A3,3,0,0,1,660.66,502.88Z" transform="translate(-479.55 -464.52)"/><path class="8030085f-447b-4605-ada0-c02e57d84d0e" d="M786.11,545.44a2.46,2.46,0,0,1-2.21,2.4,2.41,2.41,0,0,1-2.27-2.33,2.48,2.48,0,0,1,2.19-2.42A2.52,2.52,0,0,1,786.11,545.44Z" transform="translate(-479.55 -464.52)"/><path class="8030085f-447b-4605-ada0-c02e57d84d0e" d="M659.16,545.5a2.45,2.45,0,0,1-2.27,2.34,2.41,2.41,0,0,1-2.21-2.39,2.47,2.47,0,0,1,2.25-2.36A2.54,2.54,0,0,1,659.16,545.5Z" transform="translate(-479.55 -464.52)"/><path class="8030085f-447b-4605-ada0-c02e57d84d0e" d="M712,545.53a2.56,2.56,0,0,1-2.32,2.43,2.49,2.49,0,0,1-2.16-2.44,2.52,2.52,0,0,1,2.17-2.44A2.57,2.57,0,0,1,712,545.53Z" transform="translate(-479.55 -464.52)"/><path class="f5d53cf9-8060-4d14-aae2-9069bbff3228" d="M730.56,545.57a2.52,2.52,0,0,1-2.23,2.39,2.58,2.58,0,0,1-2.28-2.49,2.52,2.52,0,0,1,2.37-2.39A2.56,2.56,0,0,1,730.56,545.57Z" transform="translate(-479.55 -464.52)"/><path class="aac83747-3e91-4aac-8219-7dc120f4cb68" d="M722.73,544.91h-4.32a2.08,2.08,0,0,1,2-1.79A2.31,2.31,0,0,1,722.73,544.91Z" transform="translate(-479.55 -464.52)"/><path class="aac83747-3e91-4aac-8219-7dc120f4cb68" d="M680.22,544.92h-4.35a2.22,2.22,0,0,1,4.35,0Z" transform="translate(-479.55 -464.52)"/><path class="aac83747-3e91-4aac-8219-7dc120f4cb68" d="M749.81,544.87a2.22,2.22,0,0,1,2.07-1.75,2.3,2.3,0,0,1,2.27,1.75Z" transform="translate(-479.55 -464.52)"/><path class="aac83747-3e91-4aac-8219-7dc120f4cb68" d="M771.93,544.92h-4.34a2.11,2.11,0,0,1,1.94-1.79C770.67,543,771.43,543.7,771.93,544.92Z" transform="translate(-479.55 -464.52)"/><path class="aac83747-3e91-4aac-8219-7dc120f4cb68" d="M793.77,544.93H789.4a2.21,2.21,0,0,1,2.11-1.81A2.31,2.31,0,0,1,793.77,544.93Z" transform="translate(-479.55 -464.52)"/><path class="8030085f-447b-4605-ada0-c02e57d84d0e" d="M664.55,543.09a2.53,2.53,0,0,1,2.3,2.33,2.58,2.58,0,0,1-2.21,2.55,2.45,2.45,0,0,1-.09-4.88Z" transform="translate(-479.55 -464.52)"/></svg>